<svg id="グループ_150" data-name="グループ 150" xmlns="http://www.w3.org/2000/svg" xmlns:xlink="http://www.w3.org/1999/xlink" width="412.233" height="30.747" viewBox="0 0 412.233 30.747">
  <defs>
    <clipPath id="clip-path">
      <rect id="長方形_29" data-name="長方形 29" width="412.233" height="30.747" fill="none"/>
    </clipPath>
    <clipPath id="clip-path-2">
      <rect id="長方形_9" data-name="長方形 9" width="10.044" height="11.541" fill="none"/>
    </clipPath>
    <clipPath id="clip-path-3">
      <rect id="長方形_10" data-name="長方形 10" width="11.305" height="11.541" fill="none"/>
    </clipPath>
    <clipPath id="clip-path-8">
      <rect id="長方形_15" data-name="長方形 15" width="10.043" height="11.541" fill="none"/>
    </clipPath>
    <clipPath id="clip-path-15">
      <rect id="長方形_22" data-name="長方形 22" width="11.306" height="11.541" fill="none"/>
    </clipPath>
  </defs>
  <g id="グループ_82" data-name="グループ 82" clip-path="url(#clip-path)">
    <g id="グループ_24" data-name="グループ 24" transform="translate(42.106)" style="mix-blend-mode: normal;isolation: isolate">
      <g id="グループ_23" data-name="グループ 23">
        <g id="グループ_22" data-name="グループ 22" clip-path="url(#clip-path-2)">
          <path id="パス_39" data-name="パス 39" d="M64.412,11.541h-2.95a.408.408,0,0,1-.353-.2L54.835.616A.409.409,0,0,1,55.188,0h2.95a.409.409,0,0,1,.353.2l6.275,10.723a.409.409,0,0,1-.353.616" transform="translate(-54.778)" fill="#969b9c"/>
        </g>
      </g>
    </g>
    <g id="グループ_27" data-name="グループ 27" style="mix-blend-mode: normal;isolation: isolate">
      <g id="グループ_26" data-name="グループ 26">
        <g id="グループ_25" data-name="グループ 25" clip-path="url(#clip-path-3)">
          <path id="パス_40" data-name="パス 40" d="M9,9.232,3.713.2A.408.408,0,0,0,3.36,0H.41A.409.409,0,0,0,.057.616L6.332,11.339a.408.408,0,0,0,.353.2H11.06a.245.245,0,0,0,.089-.474A4.3,4.3,0,0,1,9,9.232" transform="translate(0 0)" fill="#969b9c"/>
        </g>
      </g>
    </g>
    <path id="パス_41" data-name="パス 41" d="M26.982,9.232,21.7.2a.408.408,0,0,0-.353-.2H18.4a.409.409,0,0,0-.353.616l6.275,10.723a.408.408,0,0,0,.353.2h4.375a.245.245,0,0,0,.089-.474,4.3,4.3,0,0,1-2.152-1.835" transform="translate(-4.161 0)" fill="#ff9c45"/>
    <path id="パス_42" data-name="パス 42" d="M44.968,9.232,39.685.2a.408.408,0,0,0-.353-.2h-2.95a.409.409,0,0,0-.353.616L42.3,11.339a.408.408,0,0,0,.353.2h4.375a.245.245,0,0,0,.089-.474,4.3,4.3,0,0,1-2.152-1.835" transform="translate(-8.322 0)" fill="#ff9c45"/>
    <path id="パス_43" data-name="パス 43" d="M80.939,9.232,75.656.2A.408.408,0,0,0,75.3,0h-2.95A.409.409,0,0,0,72,.616l6.275,10.723a.408.408,0,0,0,.353.2H83a.245.245,0,0,0,.089-.474,4.3,4.3,0,0,1-2.152-1.835" transform="translate(-16.643 0)" fill="#ff9c45"/>
    <path id="パス_44" data-name="パス 44" d="M98.925,9.232,93.642.2a.408.408,0,0,0-.353-.2h-2.95a.409.409,0,0,0-.353.616l6.275,10.723a.408.408,0,0,0,.353.2h4.375a.245.245,0,0,0,.089-.474,4.3,4.3,0,0,1-2.152-1.835" transform="translate(-20.804 0)" fill="#ff9c45"/>
    <g id="グループ_30" data-name="グループ 30" transform="translate(28.281 19.205)" style="mix-blend-mode: normal;isolation: isolate">
      <g id="グループ_29" data-name="グループ 29">
        <g id="グループ_28" data-name="グループ 28" clip-path="url(#clip-path-2)">
          <path id="パス_45" data-name="パス 45" d="M46.426,36.526h-2.95a.408.408,0,0,1-.353-.2L36.849,25.6a.409.409,0,0,1,.353-.616h2.95a.409.409,0,0,1,.353.2l6.275,10.723a.409.409,0,0,1-.353.616" transform="translate(-36.792 -24.985)" fill="#969b9c"/>
        </g>
      </g>
    </g>
    <path id="パス_46" data-name="パス 46" d="M9,34.218,3.713,25.188a.408.408,0,0,0-.353-.2H.41a.409.409,0,0,0-.353.616L6.332,36.325a.408.408,0,0,0,.353.2H11.06a.245.245,0,0,0,.089-.474A4.3,4.3,0,0,1,9,34.218" transform="translate(0 -5.78)" fill="#ff9c45"/>
    <path id="パス_47" data-name="パス 47" d="M26.982,34.218,21.7,25.188a.408.408,0,0,0-.353-.2H18.4a.409.409,0,0,0-.353.616l6.275,10.723a.408.408,0,0,0,.353.2h4.375a.245.245,0,0,0,.089-.474,4.3,4.3,0,0,1-2.152-1.835" transform="translate(-4.161 -5.78)" fill="#ff9c45"/>
    <path id="パス_48" data-name="パス 48" d="M62.954,34.218l-5.284-9.029a.408.408,0,0,0-.353-.2h-2.95a.409.409,0,0,0-.353.616L60.29,36.325a.408.408,0,0,0,.353.2h4.375a.245.245,0,0,0,.089-.474,4.3,4.3,0,0,1-2.152-1.835" transform="translate(-12.483 -5.78)" fill="#ff9c45"/>
    <path id="パス_49" data-name="パス 49" d="M80.939,34.218l-5.284-9.029a.408.408,0,0,0-.353-.2h-2.95A.409.409,0,0,0,72,25.6l6.275,10.723a.408.408,0,0,0,.353.2H83a.245.245,0,0,0,.089-.474,4.3,4.3,0,0,1-2.152-1.835" transform="translate(-16.643 -5.78)" fill="#ff9c45"/>
    <g id="グループ_33" data-name="グループ 33" transform="translate(69.125 19.205)" style="mix-blend-mode: normal;isolation: isolate">
      <g id="グループ_32" data-name="グループ 32">
        <g id="グループ_31" data-name="グループ 31" clip-path="url(#clip-path-3)">
          <path id="パス_50" data-name="パス 50" d="M98.925,34.218l-5.284-9.029a.408.408,0,0,0-.353-.2h-2.95a.409.409,0,0,0-.353.616l6.275,10.723a.408.408,0,0,0,.353.2h4.375a.245.245,0,0,0,.089-.474,4.3,4.3,0,0,1-2.152-1.835" transform="translate(-89.929 -24.985)" fill="#969b9c"/>
        </g>
      </g>
    </g>
    <g id="グループ_36" data-name="グループ 36" transform="translate(125.056)" style="mix-blend-mode: normal;isolation: isolate">
      <g id="グループ_35" data-name="グループ 35">
        <g id="グループ_34" data-name="グループ 34" clip-path="url(#clip-path-2)">
          <path id="パス_51" data-name="パス 51" d="M172.327,11.541h-2.95a.408.408,0,0,1-.353-.2L162.75.616A.409.409,0,0,1,163.1,0h2.95a.409.409,0,0,1,.353.2l6.275,10.723a.409.409,0,0,1-.353.616" transform="translate(-162.693)" fill="#969b9c"/>
        </g>
      </g>
    </g>
    <g id="グループ_39" data-name="グループ 39" transform="translate(82.95)" style="mix-blend-mode: normal;isolation: isolate">
      <g id="グループ_38" data-name="グループ 38">
        <g id="グループ_37" data-name="グループ 37" clip-path="url(#clip-path-3)">
          <path id="パス_52" data-name="パス 52" d="M116.911,9.232,111.628.2a.408.408,0,0,0-.353-.2h-2.95a.409.409,0,0,0-.353.616l6.275,10.723a.408.408,0,0,0,.353.2h4.375a.245.245,0,0,0,.089-.474,4.3,4.3,0,0,1-2.152-1.835" transform="translate(-107.915 0)" fill="#969b9c"/>
        </g>
      </g>
    </g>
    <path id="パス_53" data-name="パス 53" d="M134.9,9.232,129.614.2a.408.408,0,0,0-.353-.2h-2.95a.409.409,0,0,0-.353.616l6.275,10.723a.408.408,0,0,0,.353.2h4.375a.245.245,0,0,0,.089-.474A4.3,4.3,0,0,1,134.9,9.232" transform="translate(-29.126 0)" fill="#ff9c45"/>
    <path id="パス_54" data-name="パス 54" d="M152.883,9.232,147.6.2a.408.408,0,0,0-.353-.2H144.3a.409.409,0,0,0-.353.616l6.275,10.723a.408.408,0,0,0,.353.2h4.375a.245.245,0,0,0,.089-.474,4.3,4.3,0,0,1-2.152-1.835" transform="translate(-33.286 0)" fill="#ff9c45"/>
    <path id="パス_55" data-name="パス 55" d="M188.855,9.232,183.572.2a.408.408,0,0,0-.353-.2h-2.95a.409.409,0,0,0-.353.616l6.275,10.723a.408.408,0,0,0,.353.2h4.375a.245.245,0,0,0,.089-.474,4.3,4.3,0,0,1-2.152-1.835" transform="translate(-41.608 0)" fill="#ff9c45"/>
    <path id="パス_56" data-name="パス 56" d="M206.841,9.232,201.558.2A.408.408,0,0,0,201.2,0h-2.95a.409.409,0,0,0-.353.616l6.275,10.723a.408.408,0,0,0,.353.2H208.9a.245.245,0,0,0,.089-.474,4.3,4.3,0,0,1-2.152-1.835" transform="translate(-45.769 0)" fill="#ff9c45"/>
    <g id="グループ_42" data-name="グループ 42" transform="translate(111.232 19.205)" style="mix-blend-mode: normal;isolation: isolate">
      <g id="グループ_41" data-name="グループ 41">
        <g id="グループ_40" data-name="グループ 40" clip-path="url(#clip-path-8)">
          <path id="パス_57" data-name="パス 57" d="M154.342,36.526h-2.951a.408.408,0,0,1-.353-.2L144.764,25.6a.409.409,0,0,1,.353-.616h2.95a.409.409,0,0,1,.353.2L154.7,35.911a.409.409,0,0,1-.353.616" transform="translate(-144.708 -24.985)" fill="#969b9c"/>
        </g>
      </g>
    </g>
    <path id="パス_58" data-name="パス 58" d="M116.911,34.218l-5.284-9.029a.408.408,0,0,0-.353-.2h-2.95a.409.409,0,0,0-.353.616l6.275,10.723a.408.408,0,0,0,.353.2h4.375a.245.245,0,0,0,.089-.474,4.3,4.3,0,0,1-2.152-1.835" transform="translate(-24.965 -5.78)" fill="#ff9c45"/>
    <path id="パス_59" data-name="パス 59" d="M134.9,34.218l-5.284-9.029a.408.408,0,0,0-.353-.2h-2.95a.409.409,0,0,0-.353.616l6.275,10.723a.408.408,0,0,0,.353.2h4.375a.245.245,0,0,0,.089-.474,4.3,4.3,0,0,1-2.152-1.835" transform="translate(-29.126 -5.78)" fill="#ff9c45"/>
    <path id="パス_60" data-name="パス 60" d="M170.869,34.218l-5.284-9.029a.408.408,0,0,0-.353-.2h-2.95a.409.409,0,0,0-.353.616L168.2,36.325a.408.408,0,0,0,.353.2h4.375a.245.245,0,0,0,.089-.474,4.3,4.3,0,0,1-2.152-1.835" transform="translate(-37.447 -5.78)" fill="#ff9c45"/>
    <path id="パス_61" data-name="パス 61" d="M188.855,34.218l-5.284-9.029a.408.408,0,0,0-.353-.2h-2.95a.409.409,0,0,0-.353.616l6.275,10.723a.408.408,0,0,0,.353.2h4.375a.245.245,0,0,0,.089-.474,4.3,4.3,0,0,1-2.152-1.835" transform="translate(-41.608 -5.78)" fill="#ff9c45"/>
    <g id="グループ_45" data-name="グループ 45" transform="translate(152.076 19.205)" style="mix-blend-mode: normal;isolation: isolate">
      <g id="グループ_44" data-name="グループ 44">
        <g id="グループ_43" data-name="グループ 43" clip-path="url(#clip-path-3)">
          <path id="パス_62" data-name="パス 62" d="M206.841,34.218l-5.284-9.029a.408.408,0,0,0-.353-.2h-2.95a.409.409,0,0,0-.353.616l6.275,10.723a.408.408,0,0,0,.353.2H208.9a.245.245,0,0,0,.089-.474,4.3,4.3,0,0,1-2.152-1.835" transform="translate(-197.845 -24.985)" fill="#969b9c"/>
        </g>
      </g>
    </g>
    <g id="グループ_48" data-name="グループ 48" transform="translate(208.007)" style="mix-blend-mode: normal;isolation: isolate">
      <g id="グループ_47" data-name="グループ 47">
        <g id="グループ_46" data-name="グループ 46" clip-path="url(#clip-path-2)">
          <path id="パス_63" data-name="パス 63" d="M280.243,11.541h-2.95a.408.408,0,0,1-.353-.2L270.666.616A.409.409,0,0,1,271.019,0h2.95a.409.409,0,0,1,.353.2L280.6,10.926a.409.409,0,0,1-.353.616" transform="translate(-270.609)" fill="#969b9c"/>
        </g>
      </g>
    </g>
    <g id="グループ_51" data-name="グループ 51" transform="translate(165.901)" style="mix-blend-mode: normal;isolation: isolate">
      <g id="グループ_50" data-name="グループ 50">
        <g id="グループ_49" data-name="グループ 49" clip-path="url(#clip-path-3)">
          <path id="パス_64" data-name="パス 64" d="M224.827,9.232,219.544.2a.408.408,0,0,0-.353-.2h-2.95a.409.409,0,0,0-.353.616l6.275,10.723a.408.408,0,0,0,.353.2h4.375a.245.245,0,0,0,.089-.474,4.3,4.3,0,0,1-2.152-1.835" transform="translate(-215.831 0)" fill="#969b9c"/>
        </g>
      </g>
    </g>
    <path id="パス_65" data-name="パス 65" d="M242.813,9.232,237.53.2a.408.408,0,0,0-.353-.2h-2.95a.409.409,0,0,0-.353.616l6.275,10.723a.408.408,0,0,0,.353.2h4.375a.245.245,0,0,0,.089-.474,4.3,4.3,0,0,1-2.152-1.835" transform="translate(-54.091 0)" fill="#ff9c45"/>
    <path id="パス_66" data-name="パス 66" d="M260.8,9.232,255.515.2a.408.408,0,0,0-.353-.2h-2.95a.409.409,0,0,0-.353.616l6.275,10.723a.408.408,0,0,0,.353.2h4.375a.245.245,0,0,0,.089-.474A4.291,4.291,0,0,1,260.8,9.232" transform="translate(-58.251 0)" fill="#ff9c45"/>
    <path id="パス_67" data-name="パス 67" d="M296.77,9.232,291.487.2a.408.408,0,0,0-.353-.2h-2.95a.409.409,0,0,0-.353.616l6.275,10.723a.408.408,0,0,0,.353.2h4.375a.245.245,0,0,0,.089-.474,4.3,4.3,0,0,1-2.152-1.835" transform="translate(-66.573 0)" fill="#ff9c45"/>
    <path id="パス_68" data-name="パス 68" d="M314.756,9.232,309.473.2a.408.408,0,0,0-.353-.2h-2.95a.409.409,0,0,0-.353.616l6.275,10.723a.408.408,0,0,0,.353.2h4.375a.245.245,0,0,0,.089-.474,4.3,4.3,0,0,1-2.152-1.835" transform="translate(-70.734 0)" fill="#ff9c45"/>
    <g id="グループ_54" data-name="グループ 54" transform="translate(194.182 19.205)" style="mix-blend-mode: normal;isolation: isolate">
      <g id="グループ_53" data-name="グループ 53">
        <g id="グループ_52" data-name="グループ 52" clip-path="url(#clip-path-2)">
          <path id="パス_69" data-name="パス 69" d="M262.257,36.526h-2.95a.408.408,0,0,1-.353-.2L252.68,25.6a.409.409,0,0,1,.353-.616h2.95a.409.409,0,0,1,.353.2l6.275,10.723a.409.409,0,0,1-.353.616" transform="translate(-252.623 -24.985)" fill="#969b9c"/>
        </g>
      </g>
    </g>
    <path id="パス_70" data-name="パス 70" d="M224.827,34.218l-5.284-9.029a.408.408,0,0,0-.353-.2h-2.95a.409.409,0,0,0-.353.616l6.275,10.723a.408.408,0,0,0,.353.2h4.375a.245.245,0,0,0,.089-.474,4.3,4.3,0,0,1-2.152-1.835" transform="translate(-49.93 -5.78)" fill="#ff9c45"/>
    <path id="パス_71" data-name="パス 71" d="M242.813,34.218l-5.284-9.029a.408.408,0,0,0-.353-.2h-2.95a.409.409,0,0,0-.353.616l6.275,10.723a.408.408,0,0,0,.353.2h4.375a.245.245,0,0,0,.089-.474,4.3,4.3,0,0,1-2.152-1.835" transform="translate(-54.091 -5.78)" fill="#ff9c45"/>
    <path id="パス_72" data-name="パス 72" d="M278.784,34.218,273.5,25.188a.408.408,0,0,0-.353-.2H270.2a.409.409,0,0,0-.353.616l6.275,10.723a.408.408,0,0,0,.353.2h4.375a.245.245,0,0,0,.089-.474,4.3,4.3,0,0,1-2.152-1.835" transform="translate(-62.412 -5.78)" fill="#ff9c45"/>
    <path id="パス_73" data-name="パス 73" d="M296.77,34.218l-5.284-9.029a.408.408,0,0,0-.353-.2h-2.95a.409.409,0,0,0-.353.616l6.275,10.723a.408.408,0,0,0,.353.2h4.375a.245.245,0,0,0,.089-.474,4.3,4.3,0,0,1-2.152-1.835" transform="translate(-66.573 -5.78)" fill="#ff9c45"/>
    <g id="グループ_57" data-name="グループ 57" transform="translate(235.026 19.205)" style="mix-blend-mode: normal;isolation: isolate">
      <g id="グループ_56" data-name="グループ 56">
        <g id="グループ_55" data-name="グループ 55" clip-path="url(#clip-path-3)">
          <path id="パス_74" data-name="パス 74" d="M314.756,34.218l-5.284-9.029a.408.408,0,0,0-.353-.2h-2.95a.409.409,0,0,0-.353.616l6.275,10.723a.408.408,0,0,0,.353.2h4.375a.245.245,0,0,0,.089-.474,4.3,4.3,0,0,1-2.152-1.835" transform="translate(-305.76 -24.985)" fill="#969b9c"/>
        </g>
      </g>
    </g>
    <g id="グループ_60" data-name="グループ 60" transform="translate(290.957)" style="mix-blend-mode: normal;isolation: isolate">
      <g id="グループ_59" data-name="グループ 59">
        <g id="グループ_58" data-name="グループ 58" clip-path="url(#clip-path-2)">
          <path id="パス_75" data-name="パス 75" d="M388.158,11.541h-2.95a.408.408,0,0,1-.353-.2L378.581.616A.409.409,0,0,1,378.934,0h2.95a.409.409,0,0,1,.353.2l6.275,10.723a.409.409,0,0,1-.353.616" transform="translate(-378.524)" fill="#969b9c"/>
        </g>
      </g>
    </g>
    <g id="グループ_63" data-name="グループ 63" transform="translate(248.852)" style="mix-blend-mode: normal;isolation: isolate">
      <g id="グループ_62" data-name="グループ 62">
        <g id="グループ_61" data-name="グループ 61" clip-path="url(#clip-path-15)">
          <path id="パス_76" data-name="パス 76" d="M332.742,9.232,327.459.2a.408.408,0,0,0-.353-.2h-2.95a.409.409,0,0,0-.353.616l6.275,10.723a.408.408,0,0,0,.353.2h4.375a.245.245,0,0,0,.089-.474,4.3,4.3,0,0,1-2.152-1.835" transform="translate(-323.746 0)" fill="#969b9c"/>
        </g>
      </g>
    </g>
    <path id="パス_77" data-name="パス 77" d="M350.728,9.232,345.445.2a.408.408,0,0,0-.353-.2h-2.95a.409.409,0,0,0-.353.616l6.275,10.723a.408.408,0,0,0,.353.2h4.375a.245.245,0,0,0,.089-.474,4.3,4.3,0,0,1-2.152-1.835" transform="translate(-79.055 0)" fill="#ff9c45"/>
    <path id="パス_78" data-name="パス 78" d="M368.714,9.232,363.431.2a.408.408,0,0,0-.353-.2h-2.95a.409.409,0,0,0-.353.616l6.275,10.723a.408.408,0,0,0,.353.2h4.375a.245.245,0,0,0,.089-.474,4.3,4.3,0,0,1-2.152-1.835" transform="translate(-83.216 0)" fill="#ff9c45"/>
    <path id="パス_79" data-name="パス 79" d="M404.686,9.232,399.4.2a.408.408,0,0,0-.353-.2H396.1a.409.409,0,0,0-.353.616l6.275,10.723a.408.408,0,0,0,.353.2h4.375a.245.245,0,0,0,.089-.474,4.3,4.3,0,0,1-2.152-1.835" transform="translate(-91.538 0)" fill="#ff9c45"/>
    <path id="パス_80" data-name="パス 80" d="M422.672,9.232,417.389.2a.408.408,0,0,0-.353-.2h-2.95a.409.409,0,0,0-.353.616l6.275,10.723a.408.408,0,0,0,.353.2h4.375a.245.245,0,0,0,.089-.474,4.3,4.3,0,0,1-2.152-1.835" transform="translate(-95.699 0)" fill="#ff9c45"/>
    <g id="グループ_66" data-name="グループ 66" transform="translate(277.132 19.205)" style="mix-blend-mode: normal;isolation: isolate">
      <g id="グループ_65" data-name="グループ 65">
        <g id="グループ_64" data-name="グループ 64" clip-path="url(#clip-path-2)">
          <path id="パス_81" data-name="パス 81" d="M370.172,36.526h-2.95a.408.408,0,0,1-.353-.2L360.595,25.6a.409.409,0,0,1,.353-.616h2.95a.409.409,0,0,1,.353.2l6.275,10.723a.409.409,0,0,1-.353.616" transform="translate(-360.538 -24.985)" fill="#969b9c"/>
        </g>
      </g>
    </g>
    <path id="パス_82" data-name="パス 82" d="M332.742,34.218l-5.284-9.029a.408.408,0,0,0-.353-.2h-2.95a.409.409,0,0,0-.353.616l6.275,10.723a.408.408,0,0,0,.353.2h4.375a.245.245,0,0,0,.089-.474,4.3,4.3,0,0,1-2.152-1.835" transform="translate(-74.894 -5.78)" fill="#ff9c45"/>
    <path id="パス_83" data-name="パス 83" d="M350.728,34.218l-5.284-9.029a.408.408,0,0,0-.353-.2h-2.95a.409.409,0,0,0-.353.616l6.275,10.723a.408.408,0,0,0,.353.2h4.375a.245.245,0,0,0,.089-.474,4.3,4.3,0,0,1-2.152-1.835" transform="translate(-79.055 -5.78)" fill="#ff9c45"/>
    <path id="パス_84" data-name="パス 84" d="M386.7,34.218l-5.284-9.029a.408.408,0,0,0-.353-.2h-2.95a.409.409,0,0,0-.353.616l6.275,10.723a.408.408,0,0,0,.353.2h4.375a.245.245,0,0,0,.089-.474,4.3,4.3,0,0,1-2.152-1.835" transform="translate(-87.377 -5.78)" fill="#ff9c45"/>
    <path id="パス_85" data-name="パス 85" d="M404.686,34.218,399.4,25.188a.408.408,0,0,0-.353-.2H396.1a.409.409,0,0,0-.353.616l6.275,10.723a.408.408,0,0,0,.353.2h4.375a.245.245,0,0,0,.089-.474,4.3,4.3,0,0,1-2.152-1.835" transform="translate(-91.538 -5.78)" fill="#ff9c45"/>
    <g id="グループ_69" data-name="グループ 69" transform="translate(317.977 19.205)" style="mix-blend-mode: normal;isolation: isolate">
      <g id="グループ_68" data-name="グループ 68">
        <g id="グループ_67" data-name="グループ 67" clip-path="url(#clip-path-3)">
          <path id="パス_86" data-name="パス 86" d="M422.672,34.218l-5.284-9.029a.408.408,0,0,0-.353-.2h-2.95a.409.409,0,0,0-.353.616l6.275,10.723a.408.408,0,0,0,.353.2h4.375a.245.245,0,0,0,.089-.474,4.3,4.3,0,0,1-2.152-1.835" transform="translate(-413.676 -24.985)" fill="#969b9c"/>
        </g>
      </g>
    </g>
    <g id="グループ_72" data-name="グループ 72" transform="translate(373.908)" style="mix-blend-mode: normal;isolation: isolate">
      <g id="グループ_71" data-name="グループ 71">
        <g id="グループ_70" data-name="グループ 70" clip-path="url(#clip-path-2)">
          <path id="パス_87" data-name="パス 87" d="M496.074,11.541h-2.95a.408.408,0,0,1-.353-.2L486.5.616A.409.409,0,0,1,486.85,0h2.95a.409.409,0,0,1,.353.2l6.275,10.723a.409.409,0,0,1-.353.616" transform="translate(-486.44)" fill="#969b9c"/>
        </g>
      </g>
    </g>
    <g id="グループ_75" data-name="グループ 75" transform="translate(331.803)" style="mix-blend-mode: normal;isolation: isolate">
      <g id="グループ_74" data-name="グループ 74">
        <g id="グループ_73" data-name="グループ 73" clip-path="url(#clip-path-3)">
          <path id="パス_88" data-name="パス 88" d="M440.658,9.232,435.374.2a.408.408,0,0,0-.352-.2h-2.951a.409.409,0,0,0-.352.616l6.274,10.723a.408.408,0,0,0,.353.2h4.375a.245.245,0,0,0,.089-.474,4.3,4.3,0,0,1-2.151-1.835" transform="translate(-431.662 0)" fill="#969b9c"/>
        </g>
      </g>
    </g>
    <path id="パス_89" data-name="パス 89" d="M458.643,9.232,453.36.2a.408.408,0,0,0-.353-.2h-2.95a.409.409,0,0,0-.353.616l6.275,10.723a.408.408,0,0,0,.353.2h4.375a.245.245,0,0,0,.089-.474,4.3,4.3,0,0,1-2.152-1.835" transform="translate(-104.02 0)" fill="#ff9c45"/>
    <path id="パス_90" data-name="パス 90" d="M476.629,9.232,471.346.2a.408.408,0,0,0-.353-.2h-2.95a.409.409,0,0,0-.353.616l6.275,10.723a.408.408,0,0,0,.353.2h4.375a.245.245,0,0,0,.089-.474,4.3,4.3,0,0,1-2.152-1.835" transform="translate(-108.181 0)" fill="#ff9c45"/>
    <path id="パス_91" data-name="パス 91" d="M512.6,9.232,507.318.2a.408.408,0,0,0-.353-.2h-2.95a.409.409,0,0,0-.353.616l6.275,10.723a.408.408,0,0,0,.353.2h4.375a.245.245,0,0,0,.089-.474A4.3,4.3,0,0,1,512.6,9.232" transform="translate(-116.503 0)" fill="#ff9c45"/>
    <path id="パス_92" data-name="パス 92" d="M530.587,9.232,525.3.2a.408.408,0,0,0-.353-.2H522a.409.409,0,0,0-.353.616l6.275,10.723a.408.408,0,0,0,.353.2h4.375a.245.245,0,0,0,.089-.474,4.3,4.3,0,0,1-2.152-1.835" transform="translate(-120.663 0)" fill="#ff9c45"/>
    <g id="グループ_78" data-name="グループ 78" transform="translate(360.083 19.205)" style="mix-blend-mode: normal;isolation: isolate">
      <g id="グループ_77" data-name="グループ 77">
        <g id="グループ_76" data-name="グループ 76" clip-path="url(#clip-path-2)">
          <path id="パス_93" data-name="パス 93" d="M478.088,36.526h-2.95a.408.408,0,0,1-.353-.2L468.511,25.6a.409.409,0,0,1,.353-.616h2.95a.409.409,0,0,1,.353.2l6.275,10.723a.409.409,0,0,1-.353.616" transform="translate(-468.454 -24.985)" fill="#969b9c"/>
        </g>
      </g>
    </g>
    <path id="パス_94" data-name="パス 94" d="M440.658,34.218l-5.285-9.029a.408.408,0,0,0-.352-.2h-2.951a.409.409,0,0,0-.352.616l6.274,10.723a.408.408,0,0,0,.353.2h4.375a.245.245,0,0,0,.089-.474,4.3,4.3,0,0,1-2.151-1.835" transform="translate(-99.859 -5.78)" fill="#ff9c45"/>
    <path id="パス_95" data-name="パス 95" d="M458.643,34.218l-5.284-9.029a.408.408,0,0,0-.353-.2h-2.95a.409.409,0,0,0-.353.616l6.275,10.723a.408.408,0,0,0,.353.2h4.375a.245.245,0,0,0,.089-.474,4.3,4.3,0,0,1-2.152-1.835" transform="translate(-104.02 -5.78)" fill="#ff9c45"/>
    <path id="パス_96" data-name="パス 96" d="M494.615,34.218l-5.284-9.029a.408.408,0,0,0-.353-.2h-2.95a.409.409,0,0,0-.353.616l6.275,10.723a.408.408,0,0,0,.353.2h4.375a.245.245,0,0,0,.089-.474,4.3,4.3,0,0,1-2.152-1.835" transform="translate(-112.342 -5.78)" fill="#ff9c45"/>
    <path id="パス_97" data-name="パス 97" d="M512.6,34.218l-5.284-9.029a.408.408,0,0,0-.353-.2h-2.95a.409.409,0,0,0-.353.616l6.275,10.723a.408.408,0,0,0,.353.2h4.375a.245.245,0,0,0,.089-.474,4.3,4.3,0,0,1-2.152-1.835" transform="translate(-116.503 -5.78)" fill="#ff9c45"/>
    <g id="グループ_81" data-name="グループ 81" transform="translate(400.928 19.205)" style="mix-blend-mode: normal;isolation: isolate">
      <g id="グループ_80" data-name="グループ 80">
        <g id="グループ_79" data-name="グループ 79" clip-path="url(#clip-path-15)">
          <path id="パス_98" data-name="パス 98" d="M530.587,34.218,525.3,25.188a.408.408,0,0,0-.353-.2H522a.409.409,0,0,0-.353.616l6.275,10.723a.408.408,0,0,0,.353.2h4.375a.245.245,0,0,0,.089-.474,4.3,4.3,0,0,1-2.152-1.835" transform="translate(-521.591 -24.985)" fill="#969b9c"/>
        </g>
      </g>
    </g>
  </g>
</svg>
