<svg id="check" xmlns="http://www.w3.org/2000/svg" xmlns:xlink="http://www.w3.org/1999/xlink" width="25" height="24.999" viewBox="0 0 25 24.999">
  <defs>
    <clipPath id="clip-path">
      <rect id="長方形_8" data-name="長方形 8" width="25" height="24.999" fill="none"/>
    </clipPath>
  </defs>
  <g id="グループ_12" data-name="グループ 12" clip-path="url(#clip-path)">
    <path id="パス_36" data-name="パス 36" d="M24.119,13.115v7.142a3.861,3.861,0,0,1-3.862,3.862H5.28a3.861,3.861,0,0,1-3.862-3.862V5.279A3.862,3.862,0,0,1,5.28,1.417H20.258a3.862,3.862,0,0,1,3.862,3.862" transform="translate(-0.268 -0.268)" fill="#fff"/>
    <path id="パス_37" data-name="パス 37" d="M19.989,25H5.011A5.017,5.017,0,0,1,0,19.989V5.011A5.017,5.017,0,0,1,5.011,0H19.989A5.016,5.016,0,0,1,25,5.011a1.149,1.149,0,0,1-2.3,0A2.715,2.715,0,0,0,19.989,2.3H5.011A2.716,2.716,0,0,0,2.3,5.011V19.989A2.716,2.716,0,0,0,5.011,22.7H19.989A2.715,2.715,0,0,0,22.7,19.989V12.847a1.149,1.149,0,0,1,2.3,0v7.142A5.016,5.016,0,0,1,19.989,25" transform="translate(0)" fill="#ff9c45"/>
    <path id="パス_38" data-name="パス 38" d="M10.956,21.564a1.666,1.666,0,0,1-.22-.014,1.719,1.719,0,0,1-1.218-.758L5.555,14.8A1.724,1.724,0,0,1,8.43,12.9l2.862,4.325L20.5,8.979a1.724,1.724,0,1,1,2.3,2.569L12.105,21.125a1.726,1.726,0,0,1-1.15.439" transform="translate(-0.997 -1.616)" fill="#ff9c45"/>
  </g>
</svg>
