<svg xmlns="http://www.w3.org/2000/svg" xmlns:xlink="http://www.w3.org/1999/xlink" width="68.514" height="15.015" viewBox="0 0 68.514 15.015">
  <defs>
    <clipPath id="clip-path">
      <rect id="長方形_55" data-name="長方形 55" width="68.514" height="15.015" transform="translate(0 0)" fill="#e0e0e0"/>
    </clipPath>
    <clipPath id="clip-path-2">
      <rect id="長方形_54" data-name="長方形 54" width="13.067" height="15.015" transform="translate(36.691 0)" fill="#e0e0e0"/>
    </clipPath>
  </defs>
  <g id="グループ_105" data-name="グループ 105" transform="translate(0 0)">
    <g id="グループ_103" data-name="グループ 103" clip-path="url(#clip-path)">
      <g id="グループ_102" data-name="グループ 102" style="mix-blend-mode: normal;isolation: isolate">
        <g id="グループ_101" data-name="グループ 101">
          <g id="グループ_100" data-name="グループ 100" clip-path="url(#clip-path-2)">
            <path id="パス_105" data-name="パス 105" d="M49.225,15.015H45.387a.531.531,0,0,1-.459-.263L36.765.8a.532.532,0,0,1,.459-.8h3.838a.532.532,0,0,1,.459.264l8.163,13.95a.532.532,0,0,1-.459.8" fill="#e0e0e0"/>
          </g>
        </g>
      </g>
      <path id="パス_106" data-name="パス 106" d="M11.7,12.01,4.83.263A.531.531,0,0,0,4.371,0H.533A.532.532,0,0,0,.074.8l8.163,13.95a.531.531,0,0,0,.459.263h5.692A.319.319,0,0,0,14.5,14.4a5.588,5.588,0,0,1-2.8-2.387" fill="#e0e0e0"/>
      <path id="パス_107" data-name="パス 107" d="M29.639,12.01,22.765.263A.531.531,0,0,0,22.306,0H18.468a.532.532,0,0,0-.459.8l8.163,13.95a.531.531,0,0,0,.459.263h5.692a.319.319,0,0,0,.116-.617,5.588,5.588,0,0,1-2.8-2.387" fill="#e0e0e0"/>
      <path id="パス_108" data-name="パス 108" d="M65.51,12.01,58.636.263A.531.531,0,0,0,58.177,0H54.339a.532.532,0,0,0-.459.8l8.163,13.95a.531.531,0,0,0,.459.263h5.692a.319.319,0,0,0,.116-.617,5.588,5.588,0,0,1-2.8-2.387" fill="#e0e0e0"/>
    </g>
  </g>
</svg>
