<svg id="グループ_133" data-name="グループ 133" xmlns="http://www.w3.org/2000/svg" xmlns:xlink="http://www.w3.org/1999/xlink" width="414" height="26.062" viewBox="0 0 414 26.062">
  <defs>
    <clipPath id="clip-path">
      <rect id="長方形_57" data-name="長方形 57" width="414" height="26.062" fill="#ff9c45"/>
    </clipPath>
  </defs>
  <g id="グループ_108" data-name="グループ 108" transform="translate(0 0)" clip-path="url(#clip-path)">
    <path id="パス_110" data-name="パス 110" d="M414,0V25.3c-.021.612-.19.863-.858.721a77.414,77.414,0,0,0-7.619-1.635c-8.631-1.669-17.313-3.033-26.026-4.194-5.965-.794-11.939-1.522-17.928-2.117-2.951-.293-5.89-.7-8.843-.968-3.15-.287-6.308-.481-9.464-.7-4.818-.341-9.635-.695-14.456-1-2.763-.173-5.53-.279-8.3-.37-7.964-.259-15.928-.484-23.9-.6-7.408-.113-14.808.1-22.212.139-3.784.018-7.573.142-11.356.29-5.927.231-11.851.513-17.771.918-6.906.473-13.8,1.076-20.7,1.646-5.4.447-10.788,1.149-16.18,1.747-6.853.761-13.7,1.548-20.559,2.289q-6.489.7-12.989,1.294c-3.883.349-7.772.625-11.661.909q-6.972.508-13.949.97c-2.4.158-4.8.283-7.195.39-9.005.4-18.01.816-27.027.891a4.5,4.5,0,0,0-.665.105H83.469a5.961,5.961,0,0,0-.833-.11c-5.116.027-10.226-.195-15.334-.393q-11.726-.453-23.433-1.273c-6.424-.452-12.842-.966-19.249-1.6-6.858-.674-13.708-1.433-20.526-2.448C2.729,20,1.365,19.787,0,19.577V0Z" transform="translate(0 0)" fill="#ff9c45"/>
  </g>
</svg>
